<mxfile host="app.diagrams.net" agent="Mozilla/5.0 (Windows NT 10.0; Win64; x64) AppleWebKit/537.36 (KHTML, like Gecko) Chrome/127.0.0.0 Safari/537.36" version="24.7.7">
  <diagram name="第 1 页" id="WNEPreLNHidR-dqiQ_8K">
    <mxGraphModel dx="1434" dy="746" grid="1" gridSize="10" guides="1" tooltips="1" connect="1" arrows="1" fold="1" page="1" pageScale="1" pageWidth="827" pageHeight="1169" math="0" shadow="0">
      <root>
        <mxCell id="0" />
        <mxCell id="1" parent="0" />
        <mxCell id="kmmPmRa6Dg17O7SqXt-I-2" style="edgeStyle=orthogonalEdgeStyle;rounded=0;orthogonalLoop=1;jettySize=auto;html=1;entryX=0.5;entryY=0;entryDx=0;entryDy=0;exitX=0.5;exitY=1;exitDx=0;exitDy=0;" edge="1" parent="1" source="kmmPmRa6Dg17O7SqXt-I-4" target="kmmPmRa6Dg17O7SqXt-I-7">
          <mxGeometry relative="1" as="geometry" />
        </mxCell>
        <mxCell id="kmmPmRa6Dg17O7SqXt-I-3" style="edgeStyle=orthogonalEdgeStyle;rounded=0;orthogonalLoop=1;jettySize=auto;html=1;entryX=0.5;entryY=0;entryDx=0;entryDy=0;exitX=0.5;exitY=1;exitDx=0;exitDy=0;" edge="1" parent="1" source="kmmPmRa6Dg17O7SqXt-I-4" target="kmmPmRa6Dg17O7SqXt-I-10">
          <mxGeometry relative="1" as="geometry" />
        </mxCell>
        <mxCell id="kmmPmRa6Dg17O7SqXt-I-4" value="3" style="ellipse;whiteSpace=wrap;html=1;aspect=fixed;" vertex="1" parent="1">
          <mxGeometry x="360" y="40" width="40" height="40" as="geometry" />
        </mxCell>
        <mxCell id="kmmPmRa6Dg17O7SqXt-I-5" style="edgeStyle=orthogonalEdgeStyle;rounded=0;orthogonalLoop=1;jettySize=auto;html=1;entryX=0.5;entryY=0;entryDx=0;entryDy=0;exitX=0.5;exitY=1;exitDx=0;exitDy=0;" edge="1" parent="1" source="kmmPmRa6Dg17O7SqXt-I-7" target="kmmPmRa6Dg17O7SqXt-I-11">
          <mxGeometry relative="1" as="geometry" />
        </mxCell>
        <mxCell id="kmmPmRa6Dg17O7SqXt-I-6" style="edgeStyle=orthogonalEdgeStyle;rounded=0;orthogonalLoop=1;jettySize=auto;html=1;entryX=0.5;entryY=0;entryDx=0;entryDy=0;exitX=0.5;exitY=1;exitDx=0;exitDy=0;" edge="1" parent="1" source="kmmPmRa6Dg17O7SqXt-I-7" target="kmmPmRa6Dg17O7SqXt-I-14">
          <mxGeometry relative="1" as="geometry" />
        </mxCell>
        <mxCell id="kmmPmRa6Dg17O7SqXt-I-7" value="5" style="ellipse;whiteSpace=wrap;html=1;aspect=fixed;" vertex="1" parent="1">
          <mxGeometry x="290" y="120" width="40" height="40" as="geometry" />
        </mxCell>
        <mxCell id="kmmPmRa6Dg17O7SqXt-I-8" style="edgeStyle=orthogonalEdgeStyle;rounded=0;orthogonalLoop=1;jettySize=auto;html=1;" edge="1" parent="1" source="kmmPmRa6Dg17O7SqXt-I-10" target="kmmPmRa6Dg17O7SqXt-I-17">
          <mxGeometry relative="1" as="geometry" />
        </mxCell>
        <mxCell id="kmmPmRa6Dg17O7SqXt-I-9" style="edgeStyle=orthogonalEdgeStyle;rounded=0;orthogonalLoop=1;jettySize=auto;html=1;entryX=0.5;entryY=0;entryDx=0;entryDy=0;" edge="1" parent="1" source="kmmPmRa6Dg17O7SqXt-I-10" target="kmmPmRa6Dg17O7SqXt-I-18">
          <mxGeometry relative="1" as="geometry" />
        </mxCell>
        <mxCell id="kmmPmRa6Dg17O7SqXt-I-10" value="1" style="ellipse;whiteSpace=wrap;html=1;aspect=fixed;" vertex="1" parent="1">
          <mxGeometry x="440" y="120" width="40" height="40" as="geometry" />
        </mxCell>
        <mxCell id="kmmPmRa6Dg17O7SqXt-I-11" value="6" style="ellipse;whiteSpace=wrap;html=1;aspect=fixed;" vertex="1" parent="1">
          <mxGeometry x="240" y="200" width="40" height="40" as="geometry" />
        </mxCell>
        <mxCell id="kmmPmRa6Dg17O7SqXt-I-12" style="edgeStyle=orthogonalEdgeStyle;rounded=0;orthogonalLoop=1;jettySize=auto;html=1;entryX=0.5;entryY=0;entryDx=0;entryDy=0;exitX=0.5;exitY=1;exitDx=0;exitDy=0;" edge="1" parent="1" source="kmmPmRa6Dg17O7SqXt-I-14" target="kmmPmRa6Dg17O7SqXt-I-15">
          <mxGeometry relative="1" as="geometry" />
        </mxCell>
        <mxCell id="kmmPmRa6Dg17O7SqXt-I-13" style="edgeStyle=orthogonalEdgeStyle;rounded=0;orthogonalLoop=1;jettySize=auto;html=1;entryX=0.5;entryY=0;entryDx=0;entryDy=0;exitX=0.5;exitY=1;exitDx=0;exitDy=0;" edge="1" parent="1" source="kmmPmRa6Dg17O7SqXt-I-14" target="kmmPmRa6Dg17O7SqXt-I-16">
          <mxGeometry relative="1" as="geometry" />
        </mxCell>
        <mxCell id="kmmPmRa6Dg17O7SqXt-I-14" value="2" style="ellipse;whiteSpace=wrap;html=1;aspect=fixed;fillColor=#d5e8d4;strokeColor=#82b366;" vertex="1" parent="1">
          <mxGeometry x="350" y="200" width="40" height="40" as="geometry" />
        </mxCell>
        <mxCell id="kmmPmRa6Dg17O7SqXt-I-15" value="7" style="ellipse;whiteSpace=wrap;html=1;aspect=fixed;fillColor=#d5e8d4;strokeColor=#82b366;" vertex="1" parent="1">
          <mxGeometry x="300" y="280" width="40" height="40" as="geometry" />
        </mxCell>
        <mxCell id="kmmPmRa6Dg17O7SqXt-I-16" value="4" style="ellipse;whiteSpace=wrap;html=1;aspect=fixed;" vertex="1" parent="1">
          <mxGeometry x="400" y="280" width="40" height="40" as="geometry" />
        </mxCell>
        <mxCell id="kmmPmRa6Dg17O7SqXt-I-17" value="0" style="ellipse;whiteSpace=wrap;html=1;aspect=fixed;" vertex="1" parent="1">
          <mxGeometry x="400" y="200" width="40" height="40" as="geometry" />
        </mxCell>
        <mxCell id="kmmPmRa6Dg17O7SqXt-I-18" value="6" style="ellipse;whiteSpace=wrap;html=1;aspect=fixed;" vertex="1" parent="1">
          <mxGeometry x="480" y="200" width="40" height="40" as="geometry" />
        </mxCell>
        <mxCell id="kmmPmRa6Dg17O7SqXt-I-19" value="" style="rounded=0;whiteSpace=wrap;html=1;" vertex="1" parent="1">
          <mxGeometry x="200" y="400" width="440" height="80" as="geometry" />
        </mxCell>
        <mxCell id="kmmPmRa6Dg17O7SqXt-I-21" value="3" style="ellipse;whiteSpace=wrap;html=1;aspect=fixed;" vertex="1" parent="1">
          <mxGeometry x="210" y="420" width="40" height="40" as="geometry" />
        </mxCell>
        <mxCell id="kmmPmRa6Dg17O7SqXt-I-22" value="" style="rounded=0;whiteSpace=wrap;html=1;" vertex="1" parent="1">
          <mxGeometry x="200" y="520" width="440" height="80" as="geometry" />
        </mxCell>
        <mxCell id="kmmPmRa6Dg17O7SqXt-I-23" value="5" style="ellipse;whiteSpace=wrap;html=1;aspect=fixed;" vertex="1" parent="1">
          <mxGeometry x="210" y="540" width="40" height="40" as="geometry" />
        </mxCell>
        <mxCell id="kmmPmRa6Dg17O7SqXt-I-24" value="1" style="ellipse;whiteSpace=wrap;html=1;aspect=fixed;" vertex="1" parent="1">
          <mxGeometry x="280" y="540" width="40" height="40" as="geometry" />
        </mxCell>
        <mxCell id="kmmPmRa6Dg17O7SqXt-I-25" value="" style="shape=flexArrow;endArrow=classic;html=1;rounded=0;" edge="1" parent="1">
          <mxGeometry width="50" height="50" relative="1" as="geometry">
            <mxPoint x="680" y="559.5" as="sourcePoint" />
            <mxPoint x="750" y="559.5" as="targetPoint" />
          </mxGeometry>
        </mxCell>
        <mxCell id="kmmPmRa6Dg17O7SqXt-I-26" value="" style="rounded=0;whiteSpace=wrap;html=1;fillColor=#dae8fc;strokeColor=#6c8ebf;" vertex="1" parent="1">
          <mxGeometry x="760" y="520" width="440" height="80" as="geometry" />
        </mxCell>
        <mxCell id="kmmPmRa6Dg17O7SqXt-I-27" value="1" style="ellipse;whiteSpace=wrap;html=1;aspect=fixed;" vertex="1" parent="1">
          <mxGeometry x="787" y="545" width="40" height="40" as="geometry" />
        </mxCell>
        <mxCell id="kmmPmRa6Dg17O7SqXt-I-28" value="5" style="ellipse;whiteSpace=wrap;html=1;aspect=fixed;" vertex="1" parent="1">
          <mxGeometry x="870" y="545" width="40" height="40" as="geometry" />
        </mxCell>
      </root>
    </mxGraphModel>
  </diagram>
</mxfile>
